<?xml version="1.0" encoding="utf-8"?>
<!-- Generator: Adobe Illustrator 27.5.0, SVG Export Plug-In . SVG Version: 6.00 Build 0)  -->
<svg version="1.1" id="Capa_1" xmlns="http://www.w3.org/2000/svg" xmlns:xlink="http://www.w3.org/1999/xlink" x="0px" y="0px"
	 viewBox="0 0 2122 2122" style="enable-background:new 0 0 2122 2122;" xml:space="preserve">
<g>
	<path style="fill:#0091D1;" d="M1575.4,332.27c-342.646-62.298-514.741,275.429-514.741,275.429S888.564,269.971,545.918,332.27
		c-298.005,54.184-423.26,369.95-284.458,677.289c126.425,279.945,799.198,787.16,799.198,787.16s672.776-507.215,799.201-787.16
		C1998.657,702.22,1873.405,386.454,1575.4,332.27"/>
	<path style="fill:#007EC3;" d="M717.5,1262.412c-248.764-176.209-394.336-427.795-470.262-703.115
		c-58.697,126.691-58.329,289.615,14.222,450.26c126.426,279.946,799.2,787.161,799.2,787.161s253.205-190.908,478.136-403.12
		C1258.479,1453.523,968.024,1436.507,717.5,1262.412z"/>
	<path style="fill:#F6F6F6;" d="M1222.378,996.089h-119.723V876.367c0-23.774-19.274-43.047-43.047-43.047h-43.047
		c-23.774,0-43.047,19.274-43.047,43.047v119.723H853.791c-23.774,0-43.047,19.274-43.047,43.047v43.047
		c0,23.774,19.273,43.044,43.047,43.044h119.723v119.726c0,23.774,19.273,43.047,43.047,43.047h43.047
		c23.773,0,43.047-19.273,43.047-43.047v-119.726h119.723c23.774,0,43.047-19.271,43.047-43.044v-43.047
		C1265.425,1015.363,1246.152,996.089,1222.378,996.089"/>
	<path style="fill:#6FB5E5;" d="M1575.4,332.27c-28.923-5.259-56.662-7.669-83.153-7.669
		c-287.351,0-431.587,283.098-431.587,283.098s-0.002-0.004-0.007-0.013c-1.077-2.105-139.461-271.503-413.998-282.673
		C658.997,588.706,752.617,855.776,968.6,996.089h4.914V876.367c0-23.774,19.273-43.047,43.047-43.047h43.047
		c23.773,0,43.047,19.274,43.047,43.047v119.723h119.723c23.774,0,43.047,19.274,43.047,43.047v43.047
		c0,8.266-2.331,15.99-6.371,22.547c49.514,8.365,99.519,12.279,149.734,12.279c147.841,0,297.449-33.918,441.666-88.145
		c3.289-6.333,6.352-12.577,9.135-18.703c0.007-0.017,0-0.003,0.008-0.02c0.088-0.194,0.176-0.388,0.264-0.582
		c38.359-84.938,56.55-170.521,56.501-251.046C1916.231,547.664,1791.046,371.479,1575.4,332.27z"/>
	<path style="fill:#FAFAFA;" d="M1059.608,833.319h-43.047c-23.774,0-43.047,19.274-43.047,43.047v119.723H968.6
		c29.179,18.956,60.569,35.585,94.317,49.593c64.02,28.562,129.655,47.816,196.137,59.048c4.04-6.557,6.371-14.281,6.371-22.547
		v-43.047c0-23.774-19.274-43.047-43.047-43.047h-119.723V876.367C1102.655,852.593,1083.381,833.319,1059.608,833.319"/>
	<path style="fill:#B0D4F2;" d="M1487.529,402.626c-4.638,0-9.28,0.093-13.916,0.279c-115.289,4.628-280.216,88.103-293.527,160.051
		c-11.885,64.244,59.255,94.8,109.622,94.8c6.042,0,11.787-0.44,17.053-1.314c49.156-8.167,96.245-29.247,146.063-30.279
		c1.156-0.024,2.306-0.036,3.461-0.036c71.391,0,140.934,45.578,169.092,111.254c12.322,28.748,17.087,60.047,24.425,90.454
		c7.335,30.404,17.933,61.204,39.352,83.998c15.859,16.883,38.937,28.304,61.615,28.304c7.941,0,15.835-1.401,23.35-4.458
		c26.25-10.681,41.612-37.942,51.517-64.494c40.322-108.106,19.916-236.118-50.06-327.851
		C1708.407,455.286,1598.209,402.626,1487.529,402.626"/>
	<path style="fill:#B0D4F2;" d="M1525.732,815.403c-53.198,0-96.324,43.128-96.324,96.327c0,53.199,43.126,96.327,96.324,96.327
		s96.326-43.128,96.326-96.327C1622.058,858.531,1578.93,815.403,1525.732,815.403"/>
</g>
</svg>
